<?xml version="1.0" encoding="utf-8"?>
<!-- Generator: Adobe Illustrator 27.6.1, SVG Export Plug-In . SVG Version: 6.00 Build 0)  -->
<svg version="1.1" id="Layer_1" xmlns="http://www.w3.org/2000/svg" xmlns:xlink="http://www.w3.org/1999/xlink" x="0px" y="0px"
	 viewBox="0 0 2500 319" style="enable-background:new 0 0 2500 319;" xml:space="preserve">
<path d="M2152.1,42.1h-14.5v-5.9h35.7v5.9h-14.5v40.7h-6.7L2152.1,42.1z M2180,36.2h11.1l14.7,38.6l14.4-38.6h11v46.6h-6.7V42.5
	h-0.1l-15.4,40.3h-6.6l-15.4-40.3h-0.1v40.3h-6.7V36.2z M559.1,35.4h66.5V284h-66.5V35.4z M1018.7,35.7h81.6l96.3,249.8h-73
	l-18.6-53.3h-93.8l-19.7,53.3h-67.6L1018.7,35.7z M1059.5,87.2h-0.7l-32.2,97.7h62.6L1059.5,87.2z M1228.9,35.6h114.9
	c46.5,0,81.2,20.4,81.2,63.3c0,31.5-16.1,49.1-44,58.4v0.7c33.2,6.8,50.5,24.7,50.5,55.2c0,59.8-52.6,72.3-97.3,72.3h-105.2V35.6z
	 M1295.5,238.3h19.7c24.3,0,49.7-3.6,49.7-29c0-27.2-26.1-29.7-49-29.7h-20.5L1295.5,238.3 M1295.5,134.4h18.6
	c21.8,0,44.4-5.4,44.4-26.5c0-22.9-21.4-25-43.6-25h-19.4V134.4z M1521.6,191.3l-92.3-155.7h76.6l49.1,100.2l48.3-100.2h76.6
	l-91.7,155.7v94.1h-66.6V191.3z M1768.8,85h-61.5V35.6H1897V85h-61.5v200.4h-66.6L1768.8,85z M1928.6,35.6h176.1v47.3h-109.6v51.5
	h103.4v47.2h-103.4v56.6h113.5v47.2h-180V35.6z M408,90.3c-44.3,3.7-68.5,32.8-68.5,70.4c0,36.6,33.9,67.3,66.6,67.3l7.2-0.1h12.1
	c0,0,8,0,8.1-7.8v-78.5h68.4c0,44.3-0.2,143.8-0.2,143.8s-67.5-0.1-106.6-0.1c-73.7,0-126.2-60.9-126.2-124.7
	C268.8,91.6,326,34,397.2,36.5l102.2,0.3l-0.1,53.5L408,90.3 M803.5,90.3c-44.3,3.7-68.4,32.7-68.4,70.4c0,36.6,33.8,67.3,66.6,67.3
	l7.2-0.1H821c0,0,8,0,8-7.8v-78.5h68.2c0,44.3-0.1,143.8-0.1,143.8s-67.4-0.1-106.6-0.1c-73.6,0-126.1-60.9-126.1-124.7
	c0-69.1,57.1-126.7,128.3-124.2l102.1,0.3l0,53.5L803.5,90.3z"/>
</svg>
